HIERARCHY
ROOT Hips
{
	OFFSET 0.00000 0.00000 0.00000
	CHANNELS 6 Xposition Yposition Zposition Zrotation Yrotation Xrotation 
	JOINT LHipJoint
	{
		OFFSET 0 0 0
		CHANNELS 3 Zrotation Yrotation Xrotation
		JOINT LeftUpLeg
		{
			OFFSET 1.77779 -1.88989 0.48267
			CHANNELS 3 Zrotation Yrotation Xrotation
			JOINT LeftLeg
			{
				OFFSET 2.53442 -6.96327 0.00000
				CHANNELS 3 Zrotation Yrotation Xrotation
				JOINT LeftFoot
				{
					OFFSET 2.71068 -7.44755 0.00000
					CHANNELS 3 Zrotation Yrotation Xrotation
					JOINT LeftToeBase
					{
						OFFSET 0.17992 -0.49431 2.22524
						CHANNELS 3 Zrotation Yrotation Xrotation
						End Site
						{
							OFFSET 0.00000 -0.00000 1.14687
						}
					}
				}
			}
		}
	}
	JOINT RHipJoint
	{
		OFFSET 0 0 0
		CHANNELS 3 Zrotation Yrotation Xrotation
		JOINT RightUpLeg
		{
			OFFSET -1.58469 -1.88989 0.48267
			CHANNELS 3 Zrotation Yrotation Xrotation
			JOINT RightLeg
			{
				OFFSET -2.60386 -7.15404 0.00000
				CHANNELS 3 Zrotation Yrotation Xrotation
				JOINT RightFoot
				{
					OFFSET -2.73334 -7.50979 0.00000
					CHANNELS 3 Zrotation Yrotation Xrotation
					JOINT RightToeBase
					{
						OFFSET -0.25618 -0.70384 2.21822
						CHANNELS 3 Zrotation Yrotation Xrotation
						End Site
						{
							OFFSET -0.00000 -0.00000 1.16381
						}
					}
				}
			}
		}
	}
	JOINT LowerBack
	{
		OFFSET 0 0 0
		CHANNELS 3 Zrotation Yrotation Xrotation
		JOINT Spine
		{
			OFFSET 0.03410 2.01612 -0.22230
			CHANNELS 3 Zrotation Yrotation Xrotation
			JOINT Spine1
			{
				OFFSET 0.03465 2.03012 0.00937
				CHANNELS 3 Zrotation Yrotation Xrotation
				JOINT Neck
				{
					OFFSET 0 0 0
					CHANNELS 3 Zrotation Yrotation Xrotation
					JOINT Neck1
					{
						OFFSET -0.00219 1.70459 0.20857
						CHANNELS 3 Zrotation Yrotation Xrotation
						JOINT Head
						{
							OFFSET 0.02518 1.72339 -0.22179
							CHANNELS 3 Zrotation Yrotation Xrotation
							End Site
							{
								OFFSET 0.00282 1.74122 -0.09823
							}
						}
					}
				}
				JOINT LeftShoulder
				{
					OFFSET 0 0 0
					CHANNELS 3 Zrotation Yrotation Xrotation
					JOINT LeftArm
					{
						OFFSET 3.36358 1.00547 -0.37661
						CHANNELS 3 Zrotation Yrotation Xrotation
						JOINT LeftForeArm
						{
							OFFSET 5.06507 -0.00000 0.00000
							CHANNELS 3 Zrotation Yrotation Xrotation
							JOINT LeftHand
							{
								OFFSET 3.60196 -0.00000 0.00000
								CHANNELS 3 Zrotation Yrotation Xrotation
								JOINT LeftFingerBase
								{
									OFFSET 0 0 0
									CHANNELS 3 Zrotation Yrotation Xrotation
									JOINT LeftHandIndex1
									{
										OFFSET 0.45035 -0.00000 0.00000
										CHANNELS 3 Zrotation Yrotation Xrotation
										End Site
										{
											OFFSET 0.36308 -0.00000 0.00000
										}
									}
								}
								JOINT LThumb
								{
									OFFSET 0 0 0
									CHANNELS 3 Zrotation Yrotation Xrotation
									End Site
									{
										OFFSET 0.36862 -0.00000 0.36862
									}
								}
							}
						}
					}
				}
				JOINT RightShoulder
				{
					OFFSET 0 0 0
					CHANNELS 3 Zrotation Yrotation Xrotation
					JOINT RightArm
					{
						OFFSET -3.50159 0.80383 -0.71526
						CHANNELS 3 Zrotation Yrotation Xrotation
						JOINT RightForeArm
						{
							OFFSET -5.36394 -0.00000 0.00000
							CHANNELS 3 Zrotation Yrotation Xrotation
							JOINT RightHand
							{
								OFFSET -3.58035 -0.00000 0.00000
								CHANNELS 3 Zrotation Yrotation Xrotation
								JOINT RightFingerBase
								{
									OFFSET 0 0 0
									CHANNELS 3 Zrotation Yrotation Xrotation
									JOINT RightHandIndex1
									{
										OFFSET -0.66375 -0.00000 0.00000
										CHANNELS 3 Zrotation Yrotation Xrotation
										End Site
										{
											OFFSET -0.53513 -0.00000 0.00000
										}
									}
								}
								JOINT RThumb
								{
									OFFSET 0 0 0
									CHANNELS 3 Zrotation Yrotation Xrotation
									End Site
									{
										OFFSET -0.54330 -0.00000 0.54330
									}
								}
							}
						}
					}
				}
			}
		}
	}
}
MOTION
Frames: 12
Frame Time: .0083333
0.2940 18.1504 9.9452 -3.8108 -1.8700 -3.1938 0.0000 0.0000 0.0000 -17.1125 0.8763 -2.3585 9.1896 16.9282 56.7436 0.2059 -9.8595 17.0228 0.3411 -3.7528 -10.3822 0.0000 0.0000 0.0000 28.9401 6.9258 -14.7245 -2.0960 -9.0633 25.9934 -0.1641 -1.3416 -8.2659 -0.3256 -3.6674 10.1429 2.4070 -0.3951 10.0870 2.9156 -0.0799 0.1251 1.7064 -0.0650 -5.5352 -1.7227 -2.3414 -16.6830 -1.0282 -2.5552 22.3739 -0.4122 -1.4540 9.8732 0.0000 -0.0000 0.0000 -82.6753 -2.4895 20.2769 15.8231 -25.2801 -3.5701 -0.0000 0.0000 -8.1719 32.8743 21.3298 13.2289 -7.1250 0.0000 -0.0000 4.5187 54.8585 1.0958 0.0000 -0.0000 0.0000 90.1021 -1.3680 -7.1206 -9.4193 15.8262 -1.3121 0.0000 0.0000 13.8211 -21.4835 20.2867 -7.7706 7.1250 -0.0000 -0.0000 4.4639 -8.3682 3.7785
0.2794 18.1592 10.1215 -4.1096 -1.9969 -3.3051 0.0000 0.0000 0.0000 -16.5712 0.9149 -3.6447 9.6699 17.2200 58.3794 0.0823 -10.4481 16.0925 0.4676 -4.3860 -12.1651 0.0000 0.0000 0.0000 29.4108 6.7710 -13.9084 -2.0848 -9.0405 25.9220 -0.2388 -0.6477 -9.4893 -0.0690 -1.6942 4.6612 2.6748 -0.3321 10.1499 2.9333 0.0373 0.1702 1.5570 -0.0141 -5.5247 -1.6552 -2.3452 -16.5846 -0.9687 -2.5964 22.4051 -0.4070 -1.4604 9.8655 -0.0000 -0.0000 0.0000 -82.7783 -2.2478 20.2547 15.5271 -24.8752 -3.4446 -0.0000 0.0000 -8.2986 32.2257 18.2457 11.1645 -7.1250 0.0000 -0.0000 4.2122 51.2230 0.6467 -0.0000 -0.0000 0.0000 90.0916 -1.0179 -6.6043 -9.5652 16.0566 -1.3522 0.0000 0.0000 13.6870 -21.2507 20.2566 -7.6684 7.1250 -0.0000 -0.0000 4.6107 -8.4346 3.8975
0.2730 18.1732 10.2938 -4.0766 -1.8856 -3.3345 0.0000 0.0000 0.0000 -16.5245 0.5675 -5.0582 10.0957 17.4633 59.8078 0.0175 -9.9696 14.4830 0.3515 -3.8093 -10.5407 0.0000 0.0000 0.0000 29.4177 6.4556 -13.2579 -2.0811 -9.0331 25.8989 -0.3020 -0.2252 -10.4638 -0.0308 -1.1324 3.1131 2.7244 -0.3550 10.0698 2.8478 0.0004 0.2558 1.4429 -0.0336 -5.3891 -1.6637 -2.3625 -16.5912 -0.8212 -2.6550 22.3638 -0.3615 -1.4708 9.8544 0.0000 -0.0000 0.0000 -82.9336 -2.1339 20.0985 15.3623 -24.6484 -3.3756 -0.0000 0.0000 -8.0580 31.9423 17.1766 10.4326 -7.1250 0.0000 -0.0000 4.0309 49.9517 0.4928 0.0000 -0.0000 0.0000 89.9499 -0.4351 -6.3132 -9.5536 16.0382 -1.3490 0.0000 0.0000 13.8088 -20.4918 21.2266 -7.7058 7.1250 -0.0000 -0.0000 5.1722 -7.5344 4.4681
0.2637 18.1854 10.4600 -4.1233 -1.8080 -3.2693 0.0000 0.0000 0.0000 -16.3792 0.1634 -6.4960 10.4730 17.6674 61.0580 -0.0443 -8.9307 11.8756 0.1457 -2.4598 -6.7782 0.0000 0.0000 0.0000 29.5660 6.1505 -12.7632 -2.0658 -9.0019 25.8012 -0.2901 -0.4424 -10.3432 -0.0570 -1.5403 4.2368 2.7896 -0.3257 10.1356 2.8272 0.0546 0.1231 1.3789 -0.0103 -5.5660 -1.9016 -2.4241 -16.3038 -0.6163 -2.7345 22.4481 -0.2579 -1.5046 9.8379 0.0000 -0.0000 0.0000 -83.1286 -1.7212 20.1874 15.2195 -24.4510 -3.3163 -0.0000 0.0000 -7.8654 31.2994 18.5977 10.9736 -7.1250 0.0000 -0.0000 3.2134 51.4469 0.5107 0.0000 -0.0000 0.0000 89.7891 -0.2647 -5.7943 -9.6611 16.2078 -1.3789 0.0000 0.0000 13.5770 -19.9172 21.5254 -7.5728 7.1250 -0.0000 -0.0000 5.5601 -7.3098 4.8309
0.2506 18.1940 10.6213 -4.3788 -1.9341 -3.2270 0.0000 0.0000 0.0000 -15.9648 -0.0244 -7.8575 10.8020 17.8368 62.1368 -0.0848 -8.1653 9.7144 0.0797 -1.8214 -5.0125 0.0000 0.0000 0.0000 29.9992 6.0694 -12.1674 -2.0531 -8.9758 25.7195 -0.2770 -0.6966 -10.2194 -0.0679 -1.6813 4.6256 2.9071 -0.2890 10.2702 2.9018 0.1301 0.0801 1.3817 0.0237 -5.6877 -1.8422 -2.3714 -16.4956 -0.7076 -2.6494 22.7924 -0.2943 -1.4714 9.9941 0.0000 -0.0000 0.0000 -83.3473 -1.3220 20.1752 15.1615 -24.3706 -3.2923 -0.0000 0.0000 -8.0337 30.2372 21.2249 11.9158 -7.1250 0.0000 -0.0000 1.6707 54.1776 0.3769 0.0000 -0.0000 0.0000 89.6144 0.0779 -4.9767 -9.7491 16.3461 -1.4035 0.0000 0.0000 13.1607 -20.2181 21.6225 -7.7284 7.1250 -0.0000 -0.0000 5.3772 -7.1638 4.6859
0.2421 18.2000 10.7822 -4.6858 -2.1241 -3.2564 0.0000 0.0000 0.0000 -15.5013 -0.1329 -9.0741 11.0860 17.9769 63.0606 -0.1046 -7.6386 8.1717 0.0932 -1.9693 -5.4209 0.0000 0.0000 0.0000 30.4650 6.0462 -11.4036 -2.0375 -8.9437 25.6194 -0.2822 -0.8059 -10.3592 -0.0452 -1.3722 3.7734 3.2162 -0.2260 10.2904 2.9108 0.2466 0.2081 1.1986 0.0741 -5.5637 -1.7462 -2.3525 -16.6516 -0.6842 -2.6515 22.8622 -0.3052 -1.4610 10.0472 0.0000 0.0000 0.0000 -83.4785 -1.1221 20.0887 15.2038 -24.4292 -3.3098 -0.0000 0.0000 -8.1378 29.7319 22.5253 12.3415 -7.1250 0.0000 -0.0000 0.8441 55.5072 0.2177 0.0000 0.0000 0.0000 89.5084 0.7645 -4.3097 -9.7331 16.3211 -1.3990 0.0000 0.0000 12.8028 -20.5750 21.9370 -7.9829 7.1250 -0.0000 -0.0000 5.1776 -6.7823 4.5490
0.2289 18.2024 10.9434 -4.8868 -2.2816 -3.3403 0.0000 0.0000 0.0000 -15.1440 -0.2810 -10.2310 11.3167 18.0866 63.8059 -0.1353 -7.5530 6.8468 0.1085 -2.1240 -5.8486 0.0000 0.0000 0.0000 30.8261 6.1807 -10.3640 -2.0065 -8.8795 25.4192 -0.2953 -1.0255 -10.6897 -0.0706 -1.7147 4.7178 3.3754 -0.0937 10.2893 2.9231 0.4347 0.3659 1.0926 0.1649 -5.3954 -1.7645 -2.4150 -16.7203 -0.5598 -2.7636 22.8303 -0.2742 -1.4990 10.0515 0.0000 -0.0000 0.0000 -83.5843 -1.0998 20.3839 15.1458 -24.3488 -3.2858 -0.0000 0.0000 -8.2682 30.1432 22.8765 12.7207 -7.1250 0.0000 -0.0000 1.2137 55.9840 0.3271 0.0000 -0.0000 0.0000 89.3889 1.4149 -3.6695 -9.9051 16.5911 -1.4477 0.0000 0.0000 12.2472 -20.3431 21.7275 -7.8153 7.1250 -0.0000 -0.0000 5.3066 -7.0358 4.6371
0.2162 18.2070 11.1022 -5.0278 -2.3413 -3.2711 0.0000 0.0000 0.0000 -14.8623 -0.6434 -11.6097 11.4895 18.1664 64.3614 -0.1555 -7.4480 5.5157 0.0612 -1.5962 -4.3908 0.0000 0.0000 0.0000 31.1021 6.3208 -9.5812 -1.9768 -8.8175 25.2262 -0.3367 -1.1103 -11.4201 -0.1630 -2.6015 7.1712 3.3907 -0.0287 10.3032 2.9839 0.5260 0.3887 1.1340 0.2105 -5.3793 -1.7793 -2.4490 -16.8575 -0.5578 -2.8042 22.8746 -0.2788 -1.5185 10.0939 0.0000 -0.0000 0.0000 -83.8390 -0.9675 20.4135 15.0546 -24.2222 -3.2483 -0.0000 0.0000 -8.2238 30.3865 23.4396 13.1296 -7.1250 0.0000 -0.0000 1.3498 56.6587 0.3858 0.0000 -0.0000 0.0000 89.1706 1.7036 -2.4548 -10.3675 17.3123 -1.5825 0.0000 0.0000 11.5747 -19.7443 22.1575 -7.7093 7.1250 -0.0000 -0.0000 5.7189 -6.6807 5.0405
0.2091 18.2189 11.2604 -5.4264 -2.5480 -3.1919 0.0000 0.0000 0.0000 -14.2902 -0.8866 -12.9729 11.6006 18.2167 64.7172 -0.1562 -7.0784 3.7857 0.0090 -0.6134 -1.6856 0.0000 0.0000 0.0000 31.6733 6.3557 -9.0203 -1.9548 -8.7713 25.0824 -0.3271 -1.3884 -11.3989 -0.0787 -1.8095 4.9796 3.7992 0.0333 10.4744 3.0178 0.6748 0.2660 0.9192 0.2704 -5.6004 -1.8482 -2.4432 -16.6486 -0.3975 -2.8230 22.8937 -0.2108 -1.5146 10.0650 0.0000 -0.0000 0.0000 -83.9211 -0.5667 20.4165 14.8710 -23.9660 -3.1733 -0.0000 0.0000 -8.1224 29.9641 23.1488 12.7698 -7.1250 0.0000 -0.0000 0.9506 56.2438 0.2621 0.0000 -0.0000 0.0000 89.0905 1.6622 -1.0687 -10.8018 17.9839 -1.7142 0.0000 0.0000 10.5922 -19.2801 23.5682 -7.9621 7.1250 -0.0000 -0.0000 6.1243 -5.2960 5.5655
0.2028 18.2234 11.4147 -5.5500 -2.6743 -3.0837 0.0000 0.0000 0.0000 -14.0682 -1.1841 -14.2773 11.6515 18.2394 64.8798 -0.1552 -6.9760 2.1609 0.0176 -0.8554 -2.3511 0.0000 0.0000 0.0000 31.9061 6.2277 -8.6080 -1.9422 -8.7447 25.0000 -0.3411 -1.4409 -11.6518 -0.0429 -1.3362 3.6742 3.9179 0.1089 10.5181 3.0025 0.7953 0.1898 0.8188 0.3245 -5.7025 -1.9682 -2.4166 -16.5241 -0.2563 -2.7913 22.9491 -0.1357 -1.4940 10.0654 -0.0000 -0.0000 0.0000 -84.0895 -0.2276 20.3875 14.7567 -23.8061 -3.1271 -0.0000 0.0000 -7.9531 30.1231 22.7444 12.6435 -7.1250 0.0000 -0.0000 1.2223 55.8340 0.3250 -0.0000 -0.0000 0.0000 88.9413 1.8086 0.1476 -11.0760 18.4046 -1.7998 0.0000 0.0000 9.4858 -18.6107 23.0301 -7.5049 7.1250 -0.0000 -0.0000 6.4973 -5.9519 5.8270
0.1968 18.2167 11.5747 -5.4705 -2.5691 -3.0459 0.0000 0.0000 0.0000 -14.0881 -1.6999 -15.3835 11.6483 18.2380 64.8696 -0.1469 -6.9505 0.9023 0.0431 -1.3400 -3.6850 0.0000 0.0000 0.0000 31.8821 5.9516 -8.1313 -1.9391 -8.7381 24.9795 -0.3754 -1.3427 -12.1407 -0.0421 -1.3248 3.6430 3.8348 0.1399 10.4422 2.9416 0.8154 0.2490 0.7982 0.3376 -5.5969 -1.9074 -2.4963 -16.4192 -0.3617 -2.8938 22.6726 -0.1927 -1.5482 9.9447 0.0000 -0.0000 0.0000 -84.2029 -0.1004 20.7393 14.6949 -23.7194 -3.1022 -0.0000 0.0000 -8.0625 30.3846 22.5777 12.6867 -7.1250 0.0000 -0.0000 1.5481 55.7074 0.4068 0.0000 -0.0000 0.0000 88.7093 2.3124 1.0385 -11.2546 18.6774 -1.8566 0.0000 0.0000 8.8345 -18.0368 20.5023 -6.5065 7.1250 -0.0000 -0.0000 6.6879 -8.6308 5.6482
0.1913 18.2070 11.7380 -5.4633 -2.5868 -3.0160 0.0000 0.0000 0.0000 -14.0102 -2.1383 -16.5741 11.5968 18.2150 64.7049 -0.1269 -6.7445 -0.0910 0.0244 -1.0080 -2.7708 0.0000 0.0000 0.0000 31.9289 5.8309 -7.5703 -1.9624 -8.7873 25.1322 -0.4295 -1.0658 -12.8121 -0.0962 -1.9998 5.5052 3.8788 0.2268 10.2741 2.8436 0.9135 0.3861 0.6559 0.3875 -5.3541 -1.7709 -2.6490 -16.2543 -0.4219 -3.1320 22.3460 -0.2624 -1.6536 9.7954 -0.0000 -0.0000 0.0000 -84.1787 -0.2573 21.0991 14.4657 -23.3966 -3.0106 -0.0000 0.0000 -8.0971 30.3472 22.6067 12.6832 -7.1250 0.0000 -0.0000 1.5005 55.7313 0.3952 -0.0000 -0.0000 0.0000 88.6543 2.8402 1.9115 -11.4106 18.9148 -1.9069 0.0000 0.0000 7.4435 -18.2205 19.5949 -6.2997 7.1250 -0.0000 -0.0000 6.5175 -9.5412 5.3829
